<?xml version="1.0" encoding="UTF-8"?>
<svg width="466px" height="384px" viewBox="0 0 466 384" version="1.1" xmlns="http://www.w3.org/2000/svg" xmlns:xlink="http://www.w3.org/1999/xlink">
    <title>Group 14</title>
    <defs>
        <linearGradient x1="82.9991989%" y1="12.3619792%" x2="3.57238686%" y2="34.6480357%" id="linearGradient-1">
            <stop stop-color="#3E8ED0" offset="0%"></stop>
            <stop stop-color="#FFFFFF" offset="100%"></stop>
        </linearGradient>
    </defs>
    <g id="Page-1" stroke="none" stroke-width="1" fill="none" fill-rule="evenodd">
        <g id="Group-14">
            <g id="Group-12-Copy-2">
                <g id="Group-7-Copy-2">
                    <g id="Group-8">
                        <g id="Group-16" transform="translate(0.000000, 0.081991)">
                            <path d="M106.363686,176.777963 L175.309574,288.218009 L175.309574,288.218009 L39.4810343,288.218009 C27.3307698,288.218009 17.4810343,278.368273 17.4810343,266.218009 C17.4810343,262.128845 18.620706,258.120604 20.7721357,254.643161 L68.9458887,176.777963 C75.3385009,166.445324 88.8969963,163.251301 99.2296356,169.643913 C102.12818,171.437188 104.57041,173.879419 106.363686,176.777963 Z" id="Triangle-Copy-3" fill="#FFFFFF"></path>
                            <path d="M291.641343,3.29923862 C294.533522,5.09034073 296.970935,7.52775313 298.762037,10.4199329 L450.002276,254.634911 C456.399444,264.96473 453.211401,278.524633 442.881582,284.921801 C439.402284,287.0765 435.390945,288.218009 431.298484,288.218009 L216.47766,288.218009 L153.003489,185.379 L261.354452,10.4199329 C267.751621,0.0901137158 281.311523,-3.09792971 291.641343,3.29923862 Z" id="Combined-Shape" fill="url(#linearGradient-1)"></path>
                        </g>
                    </g>
                </g>
            </g>
            <g id="Group-12-Copy-2" transform="translate(11.000000, 304.000000)" fill="#FFFFFF" fill-rule="nonzero">
                <path d="M22.798336,63.77 C26.018336,63.77 28.923336,63.245 31.513336,62.195 C34.103336,61.145 36.168336,59.57 37.708336,57.47 C39.248336,55.37 40.018336,52.7566667 40.018336,49.63 C40.018336,47.3433333 39.5166693,45.3483333 38.513336,43.645 C37.5100027,41.9416667 35.8416693,40.32 33.508336,38.78 C31.1750027,37.24 28.048336,35.5833333 24.128336,33.81 C21.5150027,32.6433333 19.4500027,31.64 17.933336,30.8 C16.4166693,29.96 15.3316693,29.05 14.678336,28.07 C14.0250027,27.09 13.698336,25.7833333 13.698336,24.15 C13.698336,19.1566667 16.3350027,16.66 21.608336,16.66 C25.0150027,16.66 27.5350027,17.71 29.168336,19.81 C30.8016693,21.91 31.618336,25.1533333 31.618336,29.54 L31.618336,29.54 L37.708336,29.54 L37.708336,12.6 L31.688336,12.6 L31.128336,15.75 C28.2350027,13.1366667 24.478336,11.83 19.858336,11.83 C15.1916693,11.83 11.4700027,13.0666667 8.693336,15.54 C5.91666933,18.0133333 4.528336,21.5133333 4.528336,26.04 C4.528336,28.7466667 5.06500267,30.9866667 6.138336,32.76 C7.21166933,34.5333333 8.77500267,36.05 10.828336,37.31 C12.8816693,38.57 15.3550027,39.8066667 18.248336,41.02 C20.768336,42.0466667 22.973336,43.0383333 24.863336,43.995 C26.753336,44.9516667 28.223336,46.0483333 29.273336,47.285 C30.323336,48.5216667 30.848336,50.0966667 30.848336,52.01 C30.848336,54.3433333 30.0550027,56.07 28.468336,57.19 C26.8816693,58.31 24.758336,58.87 22.098336,58.87 C18.7850027,58.87 16.1250027,57.9016667 14.118336,55.965 C12.1116693,54.0283333 10.968336,50.7266667 10.688336,46.06 L10.688336,46.06 L4.318336,46.06 L4.318336,63 L10.338336,63 L11.108336,58.94 C12.5550027,60.62 14.2000027,61.845 16.043336,62.615 C17.8866693,63.385 20.138336,63.77 22.798336,63.77 Z M72.845002,63 L72.845002,58.94 L67.735002,57.47 L67.735002,18.2 L80.195002,63 L90.135002,63 L102.875002,18.2 L102.875002,57.47 L97.765002,58.94 L97.765002,63 L117.855002,63 L117.855002,58.94 L111.975002,57.47 L111.975002,18.13 L117.855002,16.66 L117.855002,12.6 L99.375002,12.6 L86.355002,55.58 L86.075002,55.58 L73.965002,12.6 L55.205002,12.6 L55.205002,16.66 L61.085002,18.13 L61.085002,57.47 L55.205002,58.94 L55.205002,63 L72.845002,63 Z M147.461668,63 L147.461668,58.94 L141.651668,57.47 L145.291668,46.62 L162.371668,46.62 L165.941668,57.47 L160.201668,58.94 L160.201668,63 L181.551668,63 L181.551668,58.94 L175.951668,57.47 L159.711668,11.9 L151.101668,11.9 L134.721668,57.47 L128.981668,58.94 L128.981668,63 L147.461668,63 Z M160.691668,41.51 L147.041668,41.51 L153.901668,21.14 L154.181668,21.14 L160.691668,41.51 Z M233.488334,63 L233.488334,45.64 L227.538334,45.64 L225.158334,57.75 L208.218334,57.75 L208.218334,18.13 L215.498334,16.66 L215.498334,12.6 L192.538334,12.6 L192.538334,16.66 L199.118334,18.13 L199.118334,57.47 L192.538334,58.94 L192.538334,63 L233.488334,63 Z M287.805,63 L287.805,45.64 L281.855,45.64 L279.475,57.75 L262.535,57.75 L262.535,18.13 L269.815,16.66 L269.815,12.6 L246.855,12.6 L246.855,16.66 L253.435,18.13 L253.435,57.47 L246.855,58.94 L246.855,63 L287.805,63 Z M324.551666,63 C328.004999,63 330.688333,62.8483333 332.601666,62.545 C334.514999,62.2416667 336.124999,61.7633333 337.431666,61.11 C339.531666,60.0366667 341.269999,58.3916667 342.646666,56.175 C344.023333,53.9583333 344.711666,51.5433333 344.711666,48.93 C344.711666,45.5233333 343.661666,42.6533333 341.561666,40.32 C339.461666,37.9866667 336.591666,36.4466667 332.951666,35.7 L332.951666,35.7 L332.951666,35.42 C334.771666,35.1866667 336.381666,34.5566667 337.781666,33.53 C339.181666,32.5033333 340.289999,31.22 341.106666,29.68 C341.923333,28.14 342.331666,26.4833333 342.331666,24.71 C342.331666,23.1233333 341.993333,21.5833333 341.316666,20.09 C340.639999,18.5966667 339.694999,17.29 338.481666,16.17 C335.821666,13.79 332.041666,12.6 327.141666,12.6 L327.141666,12.6 L301.521666,12.6 L301.521666,16.66 L307.401666,18.13 L307.401666,57.47 L301.521666,58.94 L301.521666,63 L324.551666,63 Z M323.151666,34.16 L316.501666,34.16 L316.501666,17.71 L323.431666,17.71 C326.651666,17.71 328.961666,18.41 330.361666,19.81 C331.061666,20.4166667 331.668333,21.2333333 332.181666,22.26 C332.694999,23.2866667 332.951666,24.4533333 332.951666,25.76 C332.951666,27.0666667 332.694999,28.2216667 332.181666,29.225 C331.668333,30.2283333 331.061666,31.0566667 330.361666,31.71 C328.821666,33.3433333 326.418333,34.16 323.151666,34.16 L323.151666,34.16 Z M322.101666,57.75 L316.501666,57.75 L316.501666,39.27 L323.361666,39.27 C325.414999,39.27 327.094999,39.445 328.401666,39.795 C329.708333,40.145 330.781666,40.6466667 331.621666,41.3 C332.554999,42.0466667 333.324999,42.98 333.931666,44.1 C334.538333,45.22 334.841666,46.5966667 334.841666,48.23 C334.841666,50.0966667 334.444999,51.7416667 333.651666,53.165 C332.858333,54.5883333 331.831666,55.6266667 330.571666,56.28 C329.684999,56.7933333 328.588333,57.1666667 327.281666,57.4 C325.974999,57.6333333 324.248333,57.75 322.101666,57.75 L322.101666,57.75 Z M381.038332,63 L381.038332,58.94 L374.458332,57.47 L374.458332,18.13 L381.038332,16.66 L381.038332,12.6 L358.778332,12.6 L358.778332,16.66 L365.358332,18.13 L365.358332,57.47 L358.778332,58.94 L358.778332,63 L381.038332,63 Z M417.154998,63.7 C420.094998,63.7 422.649998,63.2216667 424.819998,62.265 C426.989998,61.3083333 429.078331,59.71 431.084998,57.47 L431.084998,57.47 L432.834998,63 L438.574998,63 L438.574998,43.54 L444.454998,42.07 L444.454998,37.87 L423.594998,37.87 L423.594998,42.07 L429.474998,43.54 L429.474998,46.34 C429.474998,50.2133333 428.634998,53.1416667 426.954998,55.125 C425.274998,57.1083333 422.451665,58.1 418.484998,58.1 C416.618331,58.1 414.903331,57.8083333 413.339998,57.225 C411.776665,56.6416667 410.528331,55.72 409.594998,54.46 C408.101665,52.4066667 406.946665,49.8633333 406.129998,46.83 C405.313331,43.7966667 404.904998,40.6466667 404.904998,37.38 C404.904998,34.02 405.348331,30.905 406.234998,28.035 C407.121665,25.165 408.218331,22.75 409.524998,20.79 C410.551665,19.4833333 411.764998,18.48 413.164998,17.78 C414.564998,17.08 416.314998,16.73 418.414998,16.73 C422.148331,16.73 425.088331,17.8616667 427.234998,20.125 C429.381665,22.3883333 430.758331,25.3866667 431.364998,29.12 L431.364998,29.12 L437.734998,29.12 L437.734998,12.6 L431.784998,12.6 L430.384998,16.94 C428.658331,15.0733333 426.884998,13.7666667 425.064998,13.02 C423.244998,12.2733333 420.934998,11.9 418.134998,11.9 C414.588331,11.9 411.508331,12.4016667 408.894998,13.405 C406.281665,14.4083333 404.018331,15.9133333 402.104998,17.92 C399.864998,20.2533333 398.126665,23.205 396.889998,26.775 C395.653331,30.345 395.034998,34.2066667 395.034998,38.36 C395.034998,42.42 395.629998,46.13 396.819998,49.49 C398.009998,52.85 399.678331,55.6266667 401.824998,57.82 C405.651665,61.74 410.761665,63.7 417.154998,63.7 Z" id="SMALLBIG"></path>
            </g>
        </g>
    </g>
</svg>