<?xml version="1.0" encoding="UTF-8"?>
<svg width="357px" height="225px" viewBox="0 0 357 225" version="1.1" xmlns="http://www.w3.org/2000/svg" xmlns:xlink="http://www.w3.org/1999/xlink">
    <title>Group 7</title>
    <g id="Page-1" stroke="none" stroke-width="1" fill="none" fill-rule="evenodd">
        <g id="Group-7" fill="#FFFFFF" fill-rule="nonzero">
            <path d="M61.82,223 C70.996,223 78.126,222.597 83.21,221.791 C88.294,220.985 92.572,219.714 96.044,217.978 C101.624,215.126 106.243,210.755 109.901,204.865 C113.559,198.975 115.388,192.558 115.388,185.614 C115.388,176.562 112.598,168.936 107.018,162.736 C101.438,156.536 93.812,152.444 84.14,150.46 L84.14,150.46 L84.14,149.716 C88.976,149.096 93.254,147.422 96.974,144.694 C100.694,141.966 103.639,138.556 105.809,134.464 C107.979,130.372 109.064,125.97 109.064,121.258 C109.064,117.042 108.165,112.95 106.367,108.982 C104.569,105.014 102.058,101.542 98.834,98.566 C91.766,92.242 81.722,89.08 68.702,89.08 L68.702,89.08 L0.626,89.08 L0.626,99.868 L16.25,103.774 L16.25,208.306 L0.626,212.212 L0.626,223 L61.82,223 Z M58.1,146.368 L40.43,146.368 L40.43,102.658 L58.844,102.658 C67.4,102.658 73.538,104.518 77.258,108.238 C79.118,109.85 80.73,112.02 82.094,114.748 C83.458,117.476 84.14,120.576 84.14,124.048 C84.14,127.52 83.458,130.589 82.094,133.255 C80.73,135.921 79.118,138.122 77.258,139.858 C73.166,144.198 66.78,146.368 58.1,146.368 L58.1,146.368 Z M55.31,209.05 L40.43,209.05 L40.43,159.946 L58.658,159.946 C64.114,159.946 68.578,160.411 72.05,161.341 C75.522,162.271 78.374,163.604 80.606,165.34 C83.086,167.324 85.132,169.804 86.744,172.78 C88.356,175.756 89.162,179.414 89.162,183.754 C89.162,188.714 88.108,193.085 86,196.867 C83.892,200.649 81.164,203.408 77.816,205.144 C75.46,206.508 72.546,207.5 69.074,208.12 C65.602,208.74 61.014,209.05 55.31,209.05 L55.31,209.05 Z M199.956,223 L199.956,212.212 L182.472,208.306 L182.472,103.774 L199.956,99.868 L199.956,89.08 L140.808,89.08 L140.808,99.868 L158.292,103.774 L158.292,208.306 L140.808,212.212 L140.808,223 L199.956,223 Z M283.965999,224.86 C291.777999,224.86 298.566999,223.589 304.332999,221.047 C310.098999,218.505 315.647999,214.258 320.979999,208.306 L320.979999,208.306 L325.629999,223 L340.881999,223 L340.881999,171.292 L356.505999,167.386 L356.505999,156.226 L301.077999,156.226 L301.077999,167.386 L316.701999,171.292 L316.701999,178.732 C316.701999,189.024 314.469999,196.805 310.005999,202.075 C305.541999,207.345 298.039999,209.98 287.499999,209.98 C282.539999,209.98 277.982999,209.205 273.828999,207.655 C269.674999,206.105 266.357999,203.656 263.877999,200.308 C259.909999,194.852 256.840999,188.094 254.670999,180.034 C252.500999,171.974 251.415999,163.604 251.415999,154.924 C251.415999,145.996 252.593999,137.719 254.949999,130.093 C257.305999,122.467 260.219999,116.05 263.691999,110.842 C266.419999,107.37 269.643999,104.704 273.363999,102.844 C277.083999,100.984 281.733999,100.054 287.313999,100.054 C297.233999,100.054 305.045999,103.061 310.749999,109.075 C316.453999,115.089 320.111999,123.056 321.723999,132.976 L321.723999,132.976 L338.649999,132.976 L338.649999,89.08 L322.839999,89.08 L319.119999,100.612 C314.531999,95.652 309.819999,92.18 304.983999,90.196 C300.147999,88.212 294.009999,87.22 286.569999,87.22 C277.145999,87.22 268.961999,88.553 262.017999,91.219 C255.073999,93.885 249.059999,97.884 243.975999,103.216 C238.023999,109.416 233.404999,117.259 230.118999,126.745 C226.832999,136.231 225.189999,146.492 225.189999,157.528 C225.189999,168.316 226.770999,178.174 229.932999,187.102 C233.094999,196.03 237.527999,203.408 243.231999,209.236 C253.399999,219.652 266.977999,224.86 283.965999,224.86 Z" id="BIG"></path>
            <path d="M24.2235294,59 C27.9215686,59 31.2578431,58.4036388 34.2323529,57.2109164 C37.2068627,56.0181941 39.5784314,54.2291105 41.3470588,51.8436658 C43.1156863,49.458221 44,46.4896676 44,42.9380054 C44,40.3405211 43.4238562,38.0743486 42.2715686,36.1394879 C41.119281,34.2046271 39.203268,32.3625337 36.5235294,30.6132075 C33.8437908,28.8638814 30.2529412,26.9820305 25.7509804,24.967655 C22.7496732,23.6424079 20.3781046,22.5026954 18.6362745,21.5485175 C16.8944444,20.5943396 15.648366,19.5606469 14.8980392,18.4474394 C14.1477124,17.3342318 13.772549,15.8499551 13.772549,13.9946092 C13.772549,8.32255166 16.8006536,5.48652291 22.8568627,5.48652291 C26.769281,5.48652291 29.6633987,6.67924528 31.5392157,9.06469003 C33.4150327,11.4501348 34.3529412,15.1343217 34.3529412,20.1172507 L34.3529412,20.1172507 L41.3470588,20.1172507 L41.3470588,0.874663073 L34.4333333,0.874663073 L33.7901961,4.45283019 C30.4673203,1.48427673 26.1529412,0 20.8470588,0 C15.4875817,0 11.2133987,1.4047619 8.0245098,4.21428571 C4.83562092,7.02380952 3.24117647,10.9995508 3.24117647,16.1415094 C3.24117647,19.2160827 3.85751634,21.7605571 5.09019608,23.7749326 C6.32287582,25.7893082 8.11830065,27.5121294 10.4764706,28.9433962 C12.8346405,30.3746631 15.6751634,31.779425 18.9980392,33.1576819 C21.8921569,34.3238994 24.4245098,35.4503594 26.595098,36.537062 C28.7656863,37.6237646 30.4539216,38.8694969 31.6598039,40.2742588 C32.8656863,41.6790207 33.4686275,43.4681042 33.4686275,45.6415094 C33.4686275,48.2920036 32.5575163,50.2533693 30.7352941,51.5256065 C28.9130719,52.7978437 26.4745098,53.4339623 23.4196078,53.4339623 C19.6143791,53.4339623 16.5594771,52.3340072 14.254902,50.134097 C11.9503268,47.9341869 10.6372549,44.1837376 10.3156863,38.8827493 L10.3156863,38.8827493 L3,38.8827493 L3,58.1253369 L9.91372549,58.1253369 L10.7980392,53.5134771 C12.4594771,55.4218329 14.3486928,56.8133423 16.4656863,57.6880054 C18.5826797,58.5626685 21.1686275,59 24.2235294,59 Z M85.9910615,58 L85.9910615,53.4083333 L80.2,51.7458333 L80.2,7.33333333 L94.3206704,58 L105.585475,58 L120.023464,7.33333333 L120.023464,51.7458333 L114.232402,53.4083333 L114.232402,58 L137,58 L137,53.4083333 L130.336313,51.7458333 L130.336313,7.25416667 L137,5.59166667 L137,1 L116.056983,1 L101.301676,49.6083333 L100.984358,49.6083333 L87.2603352,1 L66,1 L66,5.59166667 L72.6636872,7.25416667 L72.6636872,51.7458333 L66,53.4083333 L66,58 L85.9910615,58 Z M176.091877,58 L176.091877,53.3917808 L169.460719,51.7232877 L173.61518,39.4082192 L193.109188,39.4082192 L197.183755,51.7232877 L190.63249,53.3917808 L190.63249,58 L215,58 L215,53.3917808 L208.608522,51.7232877 L190.073236,0 L180.246338,0 L161.551265,51.7232877 L155,53.3917808 L155,58 L176.091877,58 Z M190,34 L175,34 L182.538462,11 L182.846154,11 L190,34 Z M278,58 L278,38.3666667 L271.316239,38.3666667 L268.642735,52.0625 L249.613675,52.0625 L249.613675,7.25416667 L257.791453,5.59166667 L257.791453,1 L232,1 L232,5.59166667 L239.391453,7.25416667 L239.391453,51.7458333 L232,53.4083333 L232,58 L278,58 Z M344,58 L344,38.3666667 L337.316239,38.3666667 L334.642735,52.0625 L315.613675,52.0625 L315.613675,7.25416667 L323.791453,5.59166667 L323.791453,1 L298,1 L298,5.59166667 L305.391453,7.25416667 L305.391453,51.7458333 L298,53.4083333 L298,58 L344,58 Z" id="SMALL"></path>
        </g>
    </g>
</svg>