<?xml version="1.0" encoding="UTF-8"?>
<svg width="450px" height="256px" viewBox="0 0 450 256" version="1.1" xmlns="http://www.w3.org/2000/svg" xmlns:xlink="http://www.w3.org/1999/xlink">
    <title>Group 15</title>
    <defs>
        <polygon id="path-1" points="0 0.319081245 76.6927658 0.319081245 76.6927658 63.9011301 0 63.9011301"></polygon>
        <polygon id="path-3" points="0.148629935 0.0150145985 153.668211 0.0150145985 153.668211 152.626881 0.148629935 152.626881"></polygon>
    </defs>
    <g id="Page-1" stroke="none" stroke-width="1" fill="none" fill-rule="evenodd">
        <g id="Group-15">
            <g id="Group-7-Copy-4">
                <g id="Group-3" transform="translate(0.000000, 89.000000)">
                    <mask id="mask-2" fill="white">
                        <use xlink:href="#path-1"></use>
                    </mask>
                    <g id="Clip-2"></g>
                    <path d="M33.0339013,0.319081245 C27.0761382,0.319081245 21.118375,3.34734983 17.7292961,9.39809128 L10.0487039,23.1165827 L2.36528289,36.8379719 C-4.38458553,48.8872932 4.11357237,63.9011301 17.6642303,63.9011301 C17.6812039,63.9011301 17.7010066,63.9011301 17.7179803,63.9011301 L33.158375,63.8547643 L73.3407434,63.7417476 C75.9235724,63.733054 77.5304145,60.8641679 76.2347566,58.5777527 L56.0445592,22.9861787 L48.2875855,9.31115534 C44.8843618,3.31257546 38.9577171,0.319081245 33.0339013,0.319081245 M33.0339013,11.91054 C34.1287039,11.91054 36.8529803,12.2235093 38.5022566,15.1358633 L46.2592303,28.8108868 L59.5213355,52.1879611 L33.1244276,52.2633056 L17.6642303,52.3096714 C14.3769934,52.3096714 12.7446908,50.049337 12.1930461,49.0756544 C11.6442303,48.1048698 10.5437697,45.5286681 12.1817303,42.6047226 L19.8623224,28.8862312 L27.5457434,15.1677399 C29.1921908,12.2293051 31.9334408,11.91054 33.0339013,11.91054" id="Fill-1" fill="#FFFFFF" mask="url(#mask-2)"></path>
                </g>
                <g id="Group-6" transform="translate(70.000000, 0.000000)">
                    <mask id="mask-4" fill="white">
                        <use xlink:href="#path-3"></use>
                    </mask>
                    <g id="Clip-5"></g>
                    <path d="M151.110619,124.386407 L117.52753,66.8294942 L83.9444406,9.27258175 C80.342261,3.09934818 74.0663872,0.0141583942 67.7905134,0.0141583942 C61.483117,0.0141583942 55.1728549,3.13359635 51.5850037,9.36391022 L18.3257383,67.1063336 L0.148629935,98.668881 L6.92026909,109.856618 L28.2697028,72.7858226 L61.5261024,15.0433993 C63.4059989,11.7841146 66.5353387,11.4302168 67.7933791,11.4302168 C69.0428225,11.4302168 72.1492367,11.7784066 74.0348646,15.0091511 L107.617954,72.5660635 L141.201043,130.122976 C143.089536,133.362282 141.842958,136.230567 141.221102,137.312239 C140.596381,138.396764 138.73941,140.916859 134.976751,140.925421 L68.1343969,141.113786 L25.9112351,141.230801 L32.8089649,152.626881 L68.1687853,152.529845 L135.008274,152.34148 C149.391201,152.301523 158.337903,136.769976 151.110619,124.386407" id="Fill-4" fill="#FFFFFF" mask="url(#mask-4)"></path>
                </g>
            </g>
            <path d="M21.12,255.36 C24.8,255.36 28.12,254.76 31.08,253.56 C34.04,252.36 36.4,250.56 38.16,248.16 C39.92,245.76 40.8,242.773333 40.8,239.2 C40.8,236.586667 40.2266667,234.306667 39.08,232.36 C37.9333333,230.413333 36.0266667,228.56 33.36,226.8 C30.6933333,225.04 27.12,223.146667 22.64,221.12 C19.6533333,219.786667 17.2933333,218.64 15.56,217.68 C13.8266667,216.72 12.5866667,215.68 11.84,214.56 C11.0933333,213.44 10.72,211.946667 10.72,210.08 C10.72,204.373333 13.7333333,201.52 19.76,201.52 C23.6533333,201.52 26.5333333,202.72 28.4,205.12 C30.2666667,207.52 31.2,211.226667 31.2,216.24 L31.2,216.24 L38.16,216.24 L38.16,196.88 L31.28,196.88 L30.64,200.48 C27.3333333,197.493333 23.04,196 17.76,196 C12.4266667,196 8.17333333,197.413333 5,200.24 C1.82666667,203.066667 0.24,207.066667 0.24,212.24 C0.24,215.333333 0.853333333,217.893333 2.08,219.92 C3.30666667,221.946667 5.09333333,223.68 7.44,225.12 C9.78666667,226.56 12.6133333,227.973333 15.92,229.36 C18.8,230.533333 21.32,231.666667 23.48,232.76 C25.64,233.853333 27.32,235.106667 28.52,236.52 C29.72,237.933333 30.32,239.733333 30.32,241.92 C30.32,244.586667 29.4133333,246.56 27.6,247.84 C25.7866667,249.12 23.36,249.76 20.32,249.76 C16.5333333,249.76 13.4933333,248.653333 11.2,246.44 C8.90666667,244.226667 7.6,240.453333 7.28,235.12 L7.28,235.12 L0,235.12 L0,254.48 L6.88,254.48 L7.76,249.84 C9.41333333,251.76 11.2933333,253.16 13.4,254.04 C15.5066667,254.92 18.08,255.36 21.12,255.36 Z M70.6145665,254.48 L70.6145665,249.84 L64.7745665,248.16 L64.7745665,203.28 L79.0145665,254.48 L90.3745665,254.48 L104.934566,203.28 L104.934566,248.16 L99.0945665,249.84 L99.0945665,254.48 L122.054566,254.48 L122.054566,249.84 L115.334566,248.16 L115.334566,203.2 L122.054566,201.52 L122.054566,196.88 L100.934566,196.88 L86.0545665,246 L85.7345665,246 L71.8945665,196.88 L50.4545665,196.88 L50.4545665,201.52 L57.1745665,203.2 L57.1745665,248.16 L50.4545665,249.84 L50.4545665,254.48 L70.6145665,254.48 Z M148.189133,254.48 L148.189133,249.84 L141.549133,248.16 L145.709133,235.76 L165.229133,235.76 L169.309133,248.16 L162.749133,249.84 L162.749133,254.48 L187.149133,254.48 L187.149133,249.84 L180.749133,248.16 L162.189133,196.08 L152.349133,196.08 L133.629133,248.16 L127.069133,249.84 L127.069133,254.48 L148.189133,254.48 Z M163.309133,229.92 L147.709133,229.92 L155.549133,206.64 L155.869133,206.64 L163.309133,229.92 Z M238.803699,254.48 L238.803699,234.64 L232.003699,234.64 L229.283699,248.48 L209.923699,248.48 L209.923699,203.2 L218.243699,201.52 L218.243699,196.88 L192.003699,196.88 L192.003699,201.52 L199.523699,203.2 L199.523699,248.16 L192.003699,249.84 L192.003699,254.48 L238.803699,254.48 Z M293.178266,254.48 L293.178266,234.64 L286.378266,234.64 L283.658266,248.48 L264.298266,248.48 L264.298266,203.2 L272.618266,201.52 L272.618266,196.88 L246.378266,196.88 L246.378266,201.52 L253.898266,203.2 L253.898266,248.16 L246.378266,249.84 L246.378266,254.48 L293.178266,254.48 Z M327.472832,254.48 C331.419499,254.48 334.486166,254.306667 336.672832,253.96 C338.859499,253.613333 340.699499,253.066667 342.192832,252.32 C344.592832,251.093333 346.579499,249.213333 348.152832,246.68 C349.726166,244.146667 350.512832,241.386667 350.512832,238.4 C350.512832,234.506667 349.312832,231.226667 346.912832,228.56 C344.512832,225.893333 341.232832,224.133333 337.072832,223.28 L337.072832,223.28 L337.072832,222.96 C339.152832,222.693333 340.992832,221.973333 342.592832,220.8 C344.192832,219.626667 345.459499,218.16 346.392832,216.4 C347.326166,214.64 347.792832,212.746667 347.792832,210.72 C347.792832,208.906667 347.406166,207.146667 346.632832,205.44 C345.859499,203.733333 344.779499,202.24 343.392832,200.96 C340.352832,198.24 336.032832,196.88 330.432832,196.88 L330.432832,196.88 L301.152832,196.88 L301.152832,201.52 L307.872832,203.2 L307.872832,248.16 L301.152832,249.84 L301.152832,254.48 L327.472832,254.48 Z M325.872832,221.52 L318.272832,221.52 L318.272832,202.72 L326.192832,202.72 C329.872832,202.72 332.512832,203.52 334.112832,205.12 C334.912832,205.813333 335.606166,206.746667 336.192832,207.92 C336.779499,209.093333 337.072832,210.426667 337.072832,211.92 C337.072832,213.413333 336.779499,214.733333 336.192832,215.88 C335.606166,217.026667 334.912832,217.973333 334.112832,218.72 C332.352832,220.586667 329.606166,221.52 325.872832,221.52 L325.872832,221.52 Z M324.672832,248.48 L318.272832,248.48 L318.272832,227.36 L326.112832,227.36 C328.459499,227.36 330.379499,227.56 331.872832,227.96 C333.366166,228.36 334.592832,228.933333 335.552832,229.68 C336.619499,230.533333 337.499499,231.6 338.192832,232.88 C338.886166,234.16 339.232832,235.733333 339.232832,237.6 C339.232832,239.733333 338.779499,241.613333 337.872832,243.24 C336.966166,244.866667 335.792832,246.053333 334.352832,246.8 C333.339499,247.386667 332.086166,247.813333 330.592832,248.08 C329.099499,248.346667 327.126166,248.48 324.672832,248.48 L324.672832,248.48 Z M384.327399,254.48 L384.327399,249.84 L376.807399,248.16 L376.807399,203.2 L384.327399,201.52 L384.327399,196.88 L358.887399,196.88 L358.887399,201.52 L366.407399,203.2 L366.407399,248.16 L358.887399,249.84 L358.887399,254.48 L384.327399,254.48 Z M417.901965,255.28 C421.261965,255.28 424.181965,254.733333 426.661965,253.64 C429.141965,252.546667 431.528632,250.72 433.821965,248.16 L433.821965,248.16 L435.821965,254.48 L442.381965,254.48 L442.381965,232.24 L449.101965,230.56 L449.101965,225.76 L425.261965,225.76 L425.261965,230.56 L431.981965,232.24 L431.981965,235.44 C431.981965,239.866667 431.021965,243.213333 429.101965,245.48 C427.181965,247.746667 423.955299,248.88 419.421965,248.88 C417.288632,248.88 415.328632,248.546667 413.541965,247.88 C411.755299,247.213333 410.328632,246.16 409.261965,244.72 C407.555299,242.373333 406.235299,239.466667 405.301965,236 C404.368632,232.533333 403.901965,228.933333 403.901965,225.2 C403.901965,221.36 404.408632,217.8 405.421965,214.52 C406.435299,211.24 407.688632,208.48 409.181965,206.24 C410.355299,204.746667 411.741965,203.6 413.341965,202.8 C414.941965,202 416.941965,201.6 419.341965,201.6 C423.608632,201.6 426.968632,202.893333 429.421965,205.48 C431.875299,208.066667 433.448632,211.493333 434.141965,215.76 L434.141965,215.76 L441.421965,215.76 L441.421965,196.88 L434.621965,196.88 L433.021965,201.84 C431.048632,199.706667 429.021965,198.213333 426.941965,197.36 C424.861965,196.506667 422.221965,196.08 419.021965,196.08 C414.968632,196.08 411.448632,196.653333 408.461965,197.8 C405.475299,198.946667 402.888632,200.666667 400.701965,202.96 C398.141965,205.626667 396.155299,209 394.741965,213.08 C393.328632,217.16 392.621965,221.573333 392.621965,226.32 C392.621965,230.96 393.301965,235.2 394.661965,239.04 C396.021965,242.88 397.928632,246.053333 400.381965,248.56 C404.755299,253.04 410.595299,255.28 417.901965,255.28 Z" id="SMALLBIG" fill="#FFFFFF" fill-rule="nonzero"></path>
        </g>
    </g>
</svg>