<?xml version="1.0" encoding="UTF-8"?>
<svg width="116px" height="129px" viewBox="0 0 116 129" version="1.1" xmlns="http://www.w3.org/2000/svg" xmlns:xlink="http://www.w3.org/1999/xlink">
    <title>Artboard</title>
    <g id="Artboard" stroke="none" stroke-width="1" fill="none" fill-rule="evenodd">
        <g id="Group-18" fill-rule="nonzero">
            <path d="M0,0 L0,129 L62.519235,129 C70.6658021,129 77.083913,128.63889 81.8784405,127.882244 C86.9552754,127.081047 91.3649554,125.776893 95.111326,123.91224 C101.26027,120.784124 106.266675,116.068101 110.126669,109.881168 C114.026415,103.630521 116,96.7377897 116,89.3721515 C116,79.7808504 112.922817,71.4081994 106.817566,64.6554895 L106.418011,64.2203524 C104.673328,62.3494876 102.756222,60.6700908 100.673187,59.1817591 L100.283424,58.9073287 L100.493687,58.7124488 C103.080261,56.2481468 105.239069,53.3985818 106.94875,50.1892989 C109.414236,45.5612758 110.657088,40.5418195 110.657088,35.247847 C110.657088,30.5268385 109.643606,25.9347619 107.645425,21.5450728 C105.761287,17.4059174 103.149535,13.7407935 99.8453255,10.5945993 L99.2741439,10.0632367 C91.6460748,3.26921342 81.2139923,0 68.3335808,0 L0,0 Z M68.3335808,8.18569471 C79.3336945,8.18569471 87.8194965,10.8449813 93.7909867,16.1635546 C96.5148244,18.6664126 98.6362749,21.5864137 100.155338,24.9235577 C101.674402,28.2607017 102.433933,31.7021315 102.433933,35.247847 C102.433933,39.2107055 101.517257,42.9128496 99.6839048,46.3542794 C97.8505525,49.7957092 95.3624316,52.6635673 92.2195419,54.9578538 C89.2132997,57.1523887 85.775727,58.5358999 81.906824,59.1083873 L81.3765727,59.1814267 L81.3765727,59.8071412 C89.5480858,61.4757132 95.9910095,64.917143 100.705344,70.1314305 C105.419678,75.3457181 107.776846,81.7592917 107.776846,89.3721515 C107.776846,95.2121535 106.231592,100.608941 103.141083,105.562514 C100.050575,110.516087 96.148154,114.19216 91.4338195,116.590732 C88.5004559,118.050733 84.8861328,119.119662 80.5908503,119.797519 C76.5726828,120.431644 71.0417749,120.769162 63.9981265,120.810073 L62.519235,120.814305 L8.22315443,120.814305 L8.22315443,8.18569471 L68.3335808,8.18569471 Z" id="Combined-Shape-Copy-3" fill="#000000"></path>
            <path d="M39,71 C49.4934102,71 58,79.5065898 58,90 C58,100.49341 49.4934102,109 39,109 C28.5065898,109 20,100.49341 20,90 C20,79.5065898 28.5065898,71 39,71 Z M39,79.172043 C33.0198845,79.172043 28.172043,84.0198845 28.172043,90 C28.172043,95.9801155 33.0198845,100.827957 39,100.827957 C44.9801155,100.827957 49.827957,95.9801155 49.827957,90 C49.827957,84.0198845 44.9801155,79.172043 39,79.172043 Z" id="Oval" fill="#57A4FF"></path>
        </g>
    </g>
</svg>