<?xml version="1.0" encoding="UTF-8"?>
<svg width="357px" height="225px" viewBox="0 0 357 225" version="1.1" xmlns="http://www.w3.org/2000/svg" xmlns:xlink="http://www.w3.org/1999/xlink">
    <title>Group 7</title>
    <g id="Page-1" stroke="none" stroke-width="1" fill="none" fill-rule="evenodd">
        <g id="Group-7" fill="#FFFFFF" fill-rule="nonzero">
            <path d="M61.82,223 C70.996,223 78.126,222.597 83.21,221.791 C88.294,220.985 92.572,219.714 96.044,217.978 C101.624,215.126 106.243,210.755 109.901,204.865 C113.559,198.975 115.388,192.558 115.388,185.614 C115.388,176.562 112.598,168.936 107.018,162.736 C101.438,156.536 93.812,152.444 84.14,150.46 L84.14,150.46 L84.14,149.716 C88.976,149.096 93.254,147.422 96.974,144.694 C100.694,141.966 103.639,138.556 105.809,134.464 C107.979,130.372 109.064,125.97 109.064,121.258 C109.064,117.042 108.165,112.95 106.367,108.982 C104.569,105.014 102.058,101.542 98.834,98.566 C91.766,92.242 81.722,89.08 68.702,89.08 L68.702,89.08 L0.626,89.08 L0.626,99.868 L16.25,103.774 L16.25,208.306 L0.626,212.212 L0.626,223 L61.82,223 Z M58.1,146.368 L40.43,146.368 L40.43,102.658 L58.844,102.658 C67.4,102.658 73.538,104.518 77.258,108.238 C79.118,109.85 80.73,112.02 82.094,114.748 C83.458,117.476 84.14,120.576 84.14,124.048 C84.14,127.52 83.458,130.589 82.094,133.255 C80.73,135.921 79.118,138.122 77.258,139.858 C73.166,144.198 66.78,146.368 58.1,146.368 L58.1,146.368 Z M55.31,209.05 L40.43,209.05 L40.43,159.946 L58.658,159.946 C64.114,159.946 68.578,160.411 72.05,161.341 C75.522,162.271 78.374,163.604 80.606,165.34 C83.086,167.324 85.132,169.804 86.744,172.78 C88.356,175.756 89.162,179.414 89.162,183.754 C89.162,188.714 88.108,193.085 86,196.867 C83.892,200.649 81.164,203.408 77.816,205.144 C75.46,206.508 72.546,207.5 69.074,208.12 C65.602,208.74 61.014,209.05 55.31,209.05 L55.31,209.05 Z M199.956,223 L199.956,212.212 L182.472,208.306 L182.472,103.774 L199.956,99.868 L199.956,89.08 L140.808,89.08 L140.808,99.868 L158.292,103.774 L158.292,208.306 L140.808,212.212 L140.808,223 L199.956,223 Z M283.965999,224.86 C291.777999,224.86 298.566999,223.589 304.332999,221.047 C310.098999,218.505 315.647999,214.258 320.979999,208.306 L320.979999,208.306 L325.629999,223 L340.881999,223 L340.881999,171.292 L356.505999,167.386 L356.505999,156.226 L301.077999,156.226 L301.077999,167.386 L316.701999,171.292 L316.701999,178.732 C316.701999,189.024 314.469999,196.805 310.005999,202.075 C305.541999,207.345 298.039999,209.98 287.499999,209.98 C282.539999,209.98 277.982999,209.205 273.828999,207.655 C269.674999,206.105 266.357999,203.656 263.877999,200.308 C259.909999,194.852 256.840999,188.094 254.670999,180.034 C252.500999,171.974 251.415999,163.604 251.415999,154.924 C251.415999,145.996 252.593999,137.719 254.949999,130.093 C257.305999,122.467 260.219999,116.05 263.691999,110.842 C266.419999,107.37 269.643999,104.704 273.363999,102.844 C277.083999,100.984 281.733999,100.054 287.313999,100.054 C297.233999,100.054 305.045999,103.061 310.749999,109.075 C316.453999,115.089 320.111999,123.056 321.723999,132.976 L321.723999,132.976 L338.649999,132.976 L338.649999,89.08 L322.839999,89.08 L319.119999,100.612 C314.531999,95.652 309.819999,92.18 304.983999,90.196 C300.147999,88.212 294.009999,87.22 286.569999,87.22 C277.145999,87.22 268.961999,88.553 262.017999,91.219 C255.073999,93.885 249.059999,97.884 243.975999,103.216 C238.023999,109.416 233.404999,117.259 230.118999,126.745 C226.832999,136.231 225.189999,146.492 225.189999,157.528 C225.189999,168.316 226.770999,178.174 229.932999,187.102 C233.094999,196.03 237.527999,203.408 243.231999,209.236 C253.399999,219.652 266.977999,224.86 283.965999,224.86 Z" id="BIG"></path>
            <path d="M24.277,58.8635 C27.888,58.8635 31.14575,58.27475 34.05025,57.09725 C36.95475,55.91975 39.2705,54.1535 40.9975,51.7985 C42.7245,49.4435 43.588,46.5128333 43.588,43.0065 C43.588,40.4421667 43.0254167,38.2049167 41.90025,36.29475 C40.7750833,34.3845833 38.9041667,32.566 36.2875,30.839 C33.6708333,29.112 30.1645,27.2541667 25.7685,25.2655 C22.8378333,23.9571667 20.5220833,22.832 18.82125,21.89 C17.1204167,20.948 15.9036667,19.9275 15.171,18.8285 C14.4383333,17.7295 14.072,16.2641667 14.072,14.4325 C14.072,8.83283333 17.0288333,6.033 22.9425,6.033 C26.7628333,6.033 29.5888333,7.2105 31.4205,9.5655 C33.2521667,11.9205 34.168,15.5576667 34.168,20.477 L34.168,20.477 L40.9975,20.477 L40.9975,1.48 L34.2465,1.48 L33.6185,5.0125 C30.3738333,2.08183333 26.161,0.6165 20.98,0.6165 C15.7466667,0.6165 11.5730833,2.00333333 8.45925,4.777 C5.34541667,7.55066667 3.7885,11.4756667 3.7885,16.552 C3.7885,19.5873333 4.39033333,22.0993333 5.594,24.088 C6.79766667,26.0766667 8.55083333,27.7775 10.8535,29.1905 C13.1561667,30.6035 15.9298333,31.9903333 19.1745,33.351 C22.0005,34.5023333 24.47325,35.6144167 26.59275,36.68725 C28.71225,37.7600833 30.36075,38.9899167 31.53825,40.37675 C32.71575,41.7635833 33.3045,43.5298333 33.3045,45.6755 C33.3045,48.2921667 32.4148333,50.2285 30.6355,51.4845 C28.8561667,52.7405 26.475,53.3685 23.492,53.3685 C19.7763333,53.3685 16.7933333,52.2825833 14.543,50.11075 C12.2926667,47.9389167 11.0105,44.2363333 10.6965,39.003 L10.6965,39.003 L3.553,39.003 L3.553,58 L10.304,58 L11.1675,53.447 C12.7898333,55.331 14.6345833,56.70475 16.70175,57.56825 C18.7689167,58.43175 21.294,58.8635 24.277,58.8635 Z M85.1529149,58 L85.1529149,53.447 L79.4224149,51.7985 L79.4224149,7.76 L93.3954149,58 L104.542415,58 L118.829415,7.76 L118.829415,51.7985 L113.098915,53.447 L113.098915,58 L135.628415,58 L135.628415,53.447 L129.034415,51.7985 L129.034415,7.6815 L135.628415,6.033 L135.628415,1.48 L114.904415,1.48 L100.303415,49.679 L99.9894149,49.679 L86.4089149,1.48 L65.3709149,1.48 L65.3709149,6.033 L71.9649149,7.6815 L71.9649149,51.7985 L65.3709149,53.447 L65.3709149,58 L85.1529149,58 Z M173.58233,58 L173.58233,53.447 L167.06683,51.7985 L171.14883,39.631 L190.30283,39.631 L194.30633,51.7985 L187.86933,53.447 L187.86933,58 L211.81183,58 L211.81183,53.447 L205.53183,51.7985 L187.31983,0.695 L177.66433,0.695 L159.29533,51.7985 L152.85833,53.447 L152.85833,58 L173.58233,58 Z M188.41883,33.9005 L173.11133,33.9005 L180.80433,11.057 L181.11833,11.057 L188.41883,33.9005 Z M274.807245,58 L274.807245,38.532 L268.134745,38.532 L265.465745,52.1125 L246.468745,52.1125 L246.468745,7.6815 L254.632745,6.033 L254.632745,1.48 L228.884745,1.48 L228.884745,6.033 L236.263745,7.6815 L236.263745,51.7985 L228.884745,53.447 L228.884745,58 L274.807245,58 Z M340.47166,58 L340.47166,38.532 L333.79916,38.532 L331.13016,52.1125 L312.13316,52.1125 L312.13316,7.6815 L320.29716,6.033 L320.29716,1.48 L294.54916,1.48 L294.54916,6.033 L301.92816,7.6815 L301.92816,51.7985 L294.54916,53.447 L294.54916,58 L340.47166,58 Z" id="SMALL"></path>
        </g>
    </g>
</svg>